<svg width="20" height="20" viewBox="0 0 20 20" fill="none" xmlns="http://www.w3.org/2000/svg">
<path d="M10 1.66675C8.90573 1.66675 7.8221 1.8823 6.81105 2.30109C5.80001 2.71988 4.88135 3.33371 4.10753 4.10753C2.54472 5.67033 1.66675 7.78995 1.66675 10.0001C1.66675 13.6834 4.05842 16.8084 7.36675 17.9167C7.78342 17.9834 7.91675 17.7251 7.91675 17.5001V16.0917C5.60842 16.5917 5.11675 14.9751 5.11675 14.9751C4.73342 14.0084 4.19175 13.7501 4.19175 13.7501C3.43342 13.2334 4.25008 13.2501 4.25008 13.2501C5.08342 13.3084 5.52508 14.1084 5.52508 14.1084C6.25008 15.3751 7.47508 15.0001 7.95008 14.8001C8.02508 14.2584 8.24175 13.8917 8.47508 13.6834C6.62508 13.4751 4.68342 12.7584 4.68342 9.58342C4.68342 8.65842 5.00008 7.91675 5.54175 7.32509C5.45842 7.11675 5.16675 6.25009 5.62508 5.12509C5.62508 5.12509 6.32508 4.90009 7.91675 5.97509C8.57508 5.79175 9.29175 5.70009 10 5.70009C10.7084 5.70009 11.425 5.79175 12.0834 5.97509C13.675 4.90009 14.375 5.12509 14.375 5.12509C14.8334 6.25009 14.5417 7.11675 14.4584 7.32509C15 7.91675 15.3167 8.65842 15.3167 9.58342C15.3167 12.7667 13.3667 13.4667 11.5084 13.6751C11.8084 13.9334 12.0834 14.4417 12.0834 15.2167V17.5001C12.0834 17.7251 12.2167 17.9917 12.6417 17.9167C15.95 16.8001 18.3334 13.6834 18.3334 10.0001C18.3334 8.90574 18.1178 7.8221 17.699 6.81106C17.2803 5.80001 16.6664 4.88135 15.8926 4.10753C15.1188 3.33371 14.2001 2.71988 13.1891 2.30109C12.178 1.8823 11.0944 1.66675 10 1.66675Z" fill="#5A6475"/>
</svg>
