<svg width="1440" height="1008" viewBox="0 0 1440 1008" fill="none" xmlns="http://www.w3.org/2000/svg">
<path opacity="0.2" d="M-34.4523 917.434L52.7307 849.687M0.0172524 971.763L171.51 887.289M21.5309 1027.12L133.558 1012.98M19.0458 1094.03L93.71 1094.86M-70.4689 863.706L-26.8574 815.567" stroke="#5939DC" stroke-width="12"/>
<path opacity="0.2" d="M1492.61 81.4806L1416.77 161.716M1450.27 33.0358L1293.64 142.645M1420.58 -18.3957L1312.01 12.6354M1412.84 -84.9027L1338.92 -74.3547M1536.39 129.095L1500.62 183.316" stroke="#5939DC" stroke-width="12"/>
<path d="M726.5 1074.45L1068.54 953.134C1146.33 925.545 1231.87 929.902 1306.46 965.25L1500.5 1057.22M17.5 -64.9688L122.399 -5.85776C190.327 32.4194 270.124 43.876 346.077 26.2555L769 -71.8594M1455 557.156L904.17 586.904C870.61 588.717 836.979 585.095 804.575 576.179L339.729 448.278C298.677 436.983 255.749 434.21 213.585 440.129L-10 471.516" stroke="#8574C9" stroke-width="108"/>
<path d="M457.294 757.562C459.09 752.034 466.91 752.034 468.706 757.562L485.451 809.098C486.255 811.57 488.558 813.244 491.158 813.244H545.346C551.158 813.244 553.575 820.682 548.873 824.098L505.033 855.949C502.931 857.477 502.051 860.185 502.854 862.658L519.599 914.193C521.395 919.721 515.068 924.318 510.366 920.902L466.527 889.051C464.424 887.523 461.576 887.523 459.473 889.051L415.634 920.902C410.932 924.318 404.605 919.721 406.401 914.193L423.146 862.658C423.949 860.185 423.069 857.477 420.967 855.949L377.127 824.098C372.425 820.682 374.842 813.244 380.654 813.244H434.842C437.442 813.244 439.745 811.57 440.549 809.098L457.294 757.562Z" fill="#614CC3" fill-opacity="0.25"/>
<path d="M458.245 757.871C459.742 753.265 466.258 753.265 467.755 757.871L484.5 809.407C485.437 812.291 488.126 814.244 491.158 814.244H545.346C550.189 814.244 552.203 820.442 548.285 823.289L504.445 855.141C501.992 856.923 500.965 860.083 501.902 862.967L518.647 914.503C520.144 919.109 514.873 922.939 510.954 920.093L467.114 888.241C464.661 886.459 461.339 886.459 458.886 888.241L415.046 920.093C411.127 922.939 405.856 919.109 407.353 914.503L424.098 862.967C425.035 860.083 424.008 856.923 421.555 855.141L377.715 823.289C373.797 820.442 375.811 814.244 380.654 814.244H434.842C437.874 814.244 440.563 812.291 441.5 809.407L458.245 757.871Z" stroke="#2F4BAD" stroke-opacity="0.2" stroke-width="2"/>
<mask id="path-6-inside-1_2013_204" fill="white">
<path d="M1067 193C1067 240.496 1028.5 279 981 279C933.504 279 895 240.496 895 193C895 145.504 933.504 107 981 107C1028.5 107 1067 145.504 1067 193ZM938 193C938 216.748 957.252 236 981 236C1004.75 236 1024 216.748 1024 193C1024 169.252 1004.75 150 981 150C957.252 150 938 169.252 938 193Z"/>
</mask>
<path d="M1067 193C1067 240.496 1028.5 279 981 279C933.504 279 895 240.496 895 193C895 145.504 933.504 107 981 107C1028.5 107 1067 145.504 1067 193ZM938 193C938 216.748 957.252 236 981 236C1004.75 236 1024 216.748 1024 193C1024 169.252 1004.75 150 981 150C957.252 150 938 169.252 938 193Z" fill="#385DE0" fill-opacity="0.2" stroke="#614CC3" stroke-opacity="0.3" stroke-width="4" mask="url(#path-6-inside-1_2013_204)"/>
</svg>
