<svg width="116" height="40" viewBox="0 0 116 40" fill="none" xmlns="http://www.w3.org/2000/svg">
<path d="M19.2918 27.7647V19.7647L19.1601 17.2941H19.4015L20.2573 19.7647L23.3296 26.8235H27.3236L30.3959 19.7647L31.2518 17.2941H31.4932L31.3834 19.7647V27.7647H34.6752V12H30.1984L26.8628 19.7647L25.5241 23.4588H25.2827L23.9002 19.7647L20.4548 12H16V27.7647H19.2918ZM42.2613 28C46.0139 28 48.5376 25.6 48.5376 21.8824C48.5376 18.1176 46.0139 15.7412 42.2613 15.7412C38.5087 15.7412 35.985 18.1176 35.985 21.8824C35.985 25.6 38.5087 28 42.2613 28ZM42.2613 24.8706C40.0229 24.8706 39.2549 23.9529 39.2549 21.8824C39.2549 19.8118 40.0229 18.8471 42.2613 18.8471C44.4778 18.8471 45.2678 19.8118 45.2678 21.8824C45.2678 23.9529 44.4778 24.8706 42.2613 24.8706ZM54.7975 28C57.3213 28 58.7697 26.8235 59.1866 24.4941H59.3622V27.7647H62.4345V12H59.1427V19.1059H58.9452C58.5722 17.1294 57.2335 15.7412 54.622 15.7412C51.3522 15.7412 49.4869 18.1176 49.4869 21.8824C49.4869 25.6 51.3742 28 54.7975 28ZM52.8226 21.8824C52.8226 19.7176 53.8101 18.9647 55.9168 18.9647C58.0235 18.9647 59.1427 19.7176 59.1427 21.7647V21.9529C59.1427 24 58.0016 24.7765 55.9168 24.7765C53.8101 24.7765 52.8226 24.0235 52.8226 21.8824ZM70.0135 28C73.5028 28 75.8289 26.2118 75.8289 23.6471V23.3882H72.5372V23.6235C72.5372 24.6353 71.8569 25.1765 69.9038 25.1765C67.7751 25.1765 66.9851 24.4 66.8973 22.5882H75.8509C75.8948 22.1882 75.9387 21.8824 75.9387 21.4588C75.9387 17.7647 73.5467 15.7412 69.9477 15.7412C66.3268 15.7412 63.847 18.1176 63.847 21.8824C63.847 26.0706 66.3487 28 70.0135 28ZM69.8819 18.4941C71.813 18.4941 72.6908 19.1765 72.7786 20.7294H66.9412C67.0948 19.2 67.9287 18.4941 69.8819 18.4941ZM87.8308 28C92.6368 28 95.0507 25.4118 95.0507 21.1765V12H91.759V20.9176C91.759 23.6 90.8373 24.5647 87.8308 24.5647C84.8463 24.5647 83.9026 23.6 83.9026 20.9176V12H80.6109V21.1765C80.6109 25.4118 83.0468 28 87.8308 28ZM100 27.7647V12H96.7083V27.7647H100Z" fill="#121417"/>
</svg>
